<svg width="50" height="50" xmlns="http://www.w3.org/2000/svg">

 <g>
  <title>background</title>
  <rect fill="none" id="canvas_background" height="52" width="52" y="-1" x="-1"/>
 </g>
 <g>
  <title>Layer 1</title>
  <path stroke="null" fill="#7f7f7f" id="svg_1" d="m45.305777,8.843974c-4.715389,-4.715389 -12.359721,-4.715389 -17.074607,0l-2.846439,2.845936l-2.845936,-2.845432c-4.715389,-4.715389 -12.360225,-4.715389 -17.07511,0c-4.715389,4.715389 -4.715389,12.359721 0,17.07511l2.845936,2.844426l17.07511,17.07511l17.07511,-17.07511l2.845432,-2.844426c4.715892,-4.715389 4.715892,-12.360225 0.000503,-17.075613zm-8.537807,19.921046l-11.383239,11.383239l-11.382736,-11.383239l-5.691368,-5.691368c-3.14376,-3.143257 -3.14376,-8.239982 0,-11.384245c3.14376,-3.143257 8.239982,-3.143257 11.383239,0l5.690865,5.692374l5.691871,-5.691871c3.143257,-3.143257 8.239982,-3.143257 11.383239,0c3.143257,3.144263 3.143257,8.239982 0,11.384245l-5.691871,5.690865z"/>
  <path stroke="null" id="svg_6" d="m75.207292,78.476096c0,0 -20.497761,-22.476855 -20.53393,-22.507501c0.036169,0.030646 2.156627,-10.995735 2.120458,-11.026382c0.036169,0.030647 11.203915,-3.291404 11.167746,-3.322051c0.036169,0.030647 6.609589,7.381568 7.457772,7.09884c0.848183,-0.282728 7.775013,-5.654555 7.775013,-5.654555c0,0 10.107517,1.130911 10.107517,1.130911c0,0 3.816824,10.036835 3.780656,10.006188c0.036168,0.030646 -21.875231,24.27455 -21.875231,24.27455z" stroke-opacity="null" stroke-width="null" fill="#7f7f7f"/>
 </g>
</svg>